<svg width="194" height="100" viewBox="0 0 194 100" fill="none" xmlns="http://www.w3.org/2000/svg">
<g clip-path="url(#clip0_25_3)">
<path d="M30.3761 61V42.8182H43.0536V46.3871H34.7706V50.1158H42.4055V53.6935H34.7706V57.4311H43.0536V61H30.3761ZM49.147 53.223V61H44.8058V47.3636H48.9339V49.8672H49.0849C49.3867 49.0327 49.9016 48.3787 50.6296 47.9052C51.3576 47.4258 52.2247 47.1861 53.2308 47.1861C54.1896 47.1861 55.0212 47.4021 55.7255 47.8342C56.4357 48.2603 56.9862 48.8581 57.3768 49.6275C57.7733 50.391 57.9686 51.2847 57.9627 52.3086V61H53.6214V53.1609C53.6274 52.4033 53.435 51.8114 53.0444 51.3853C52.6597 50.9592 52.1241 50.7461 51.4375 50.7461C50.9818 50.7461 50.5793 50.8467 50.2301 51.0479C49.8868 51.2433 49.6205 51.5244 49.4311 51.8913C49.2476 52.2583 49.1529 52.7022 49.147 53.223ZM66.0248 61.2575C64.5984 61.2575 63.3673 60.9763 62.3316 60.4141C61.3018 59.8459 60.5087 59.038 59.9523 57.9904C59.4019 56.9369 59.1267 55.6851 59.1267 54.2351C59.1267 52.8265 59.4049 51.5954 59.9612 50.5419C60.5175 49.4825 61.3018 48.6598 62.3138 48.0739C63.3259 47.482 64.5185 47.1861 65.8916 47.1861C66.8622 47.1861 67.75 47.337 68.555 47.6388C69.3599 47.9407 70.0553 48.3875 70.6412 48.9794C71.2272 49.5713 71.6829 50.3022 72.0084 51.1722C72.334 52.0363 72.4967 53.0277 72.4967 54.1463V55.2294H60.6448V52.7081H68.4573C68.4514 52.2464 68.3419 51.8351 68.1288 51.4741C67.9157 51.113 67.6228 50.8319 67.2499 50.6307C66.883 50.4235 66.4598 50.32 65.9804 50.32C65.4951 50.32 65.06 50.4295 64.6753 50.6484C64.2906 50.8615 63.9858 51.1545 63.7609 51.5273C63.536 51.8943 63.4176 52.3116 63.4058 52.7791V55.3448C63.4058 55.9012 63.5153 56.3894 63.7343 56.8097C63.9533 57.224 64.264 57.5465 64.6665 57.7773C65.0689 58.0082 65.5483 58.1236 66.1047 58.1236C66.4894 58.1236 66.8386 58.0703 67.1523 57.9638C67.4659 57.8572 67.7352 57.7004 67.9601 57.4933C68.185 57.2861 68.3537 57.0316 68.4662 56.7298L72.4523 56.8452C72.2866 57.7389 71.9226 58.5172 71.3604 59.18C70.804 59.837 70.0731 60.349 69.1675 60.7159C68.262 61.0769 67.2144 61.2575 66.0248 61.2575ZM73.714 61V47.3636H77.9309V49.8494H78.073C78.3216 48.9498 78.727 48.281 79.2892 47.843C79.8515 47.3991 80.5055 47.1772 81.2512 47.1772C81.4525 47.1772 81.6596 47.192 81.8727 47.2216C82.0858 47.2453 82.284 47.2837 82.4675 47.337V51.1101C82.2604 51.0391 81.9881 50.9828 81.6507 50.9414C81.3193 50.9 81.0234 50.8793 80.763 50.8793C80.248 50.8793 79.7834 50.9947 79.3691 51.2255C78.9608 51.4504 78.6382 51.767 78.4015 52.1754C78.1706 52.5779 78.0552 53.0514 78.0552 53.5959V61H73.714ZM88.8849 66.3977C87.5888 66.3977 86.479 66.2172 85.5558 65.8562C84.6325 65.4951 83.9074 65.0009 83.3807 64.3736C82.8539 63.7462 82.5373 63.036 82.4308 62.2429L86.5412 62.0121C86.6181 62.2902 86.7602 62.5329 86.9673 62.7401C87.1804 62.9472 87.4556 63.107 87.793 63.2195C88.1362 63.3319 88.5387 63.3881 89.0004 63.3881C89.7283 63.3881 90.3291 63.2106 90.8026 62.8555C91.282 62.5063 91.5217 61.8937 91.5217 61.0178V58.6207H91.3707C91.1991 59.041 90.9387 59.4168 90.5895 59.7482C90.2403 60.0797 89.8053 60.3401 89.2844 60.5295C88.7695 60.7189 88.1777 60.8136 87.5089 60.8136C86.5146 60.8136 85.6031 60.5827 84.7745 60.1211C83.9518 59.6535 83.2919 58.9315 82.7947 57.9549C82.3035 56.9724 82.0579 55.7088 82.0579 54.1641C82.0579 52.572 82.3124 51.261 82.8214 50.2312C83.3304 49.1954 83.9962 48.429 84.8189 47.9318C85.6475 47.4347 86.5382 47.1861 87.4911 47.1861C88.2073 47.1861 88.8198 47.3104 89.3288 47.5589C89.8438 47.8016 90.2669 48.1153 90.5984 48.5C90.9298 48.8847 91.1813 49.2842 91.353 49.6985H91.4773V47.3636H95.8008V61.0533C95.8008 62.2074 95.5108 63.181 94.9308 63.9741C94.3507 64.7672 93.5399 65.3679 92.4982 65.7763C91.4566 66.1906 90.2521 66.3977 88.8849 66.3977ZM89.0181 57.6531C89.5449 57.6531 89.9947 57.514 90.3675 57.2358C90.7404 56.9576 91.0275 56.5581 91.2287 56.0373C91.4299 55.5165 91.5305 54.892 91.5305 54.1641C91.5305 53.4242 91.4299 52.788 91.2287 52.2553C91.0334 51.7167 90.7463 51.3024 90.3675 51.0124C89.9947 50.7224 89.5449 50.5774 89.0181 50.5774C88.4795 50.5774 88.0238 50.7254 87.6509 51.0213C87.2781 51.3172 86.994 51.7345 86.7987 52.2731C86.6093 52.8058 86.5146 53.4361 86.5146 54.1641C86.5146 54.892 86.6122 55.5165 86.8075 56.0373C87.0028 56.5581 87.284 56.9576 87.6509 57.2358C88.0238 57.514 88.4795 57.6531 89.0181 57.6531ZM97.5684 61V42.8182H105.079C106.44 42.8182 107.615 43.0845 108.604 43.6172C109.598 44.1439 110.364 44.8808 110.903 45.8278C111.442 46.7688 111.711 47.8638 111.711 49.1126C111.711 50.3673 111.436 51.4652 110.885 52.4062C110.341 53.3414 109.562 54.0664 108.55 54.5813C107.538 55.0962 106.337 55.3537 104.946 55.3537H100.312V51.8913H104.129C104.792 51.8913 105.345 51.7759 105.789 51.5451C106.239 51.3143 106.579 50.9917 106.81 50.5774C107.041 50.1572 107.157 49.6689 107.157 49.1126C107.157 48.5503 107.041 48.065 106.81 47.6566C106.579 47.2423 106.239 46.9227 105.789 46.6978C105.34 46.4729 104.786 46.3604 104.129 46.3604H101.963V61H97.5684ZM112.877 61V47.3636H117.094V49.8494H117.236C117.485 48.9498 117.89 48.281 118.452 47.843C119.015 47.3991 119.669 47.1772 120.414 47.1772C120.616 47.1772 120.823 47.192 121.036 47.2216C121.249 47.2453 121.447 47.2837 121.631 47.337V51.1101C121.423 51.0391 121.151 50.9828 120.814 50.9414C120.482 50.9 120.186 50.8793 119.926 50.8793C119.411 50.8793 118.947 50.9947 118.532 51.2255C118.124 51.4504 117.801 51.767 117.565 52.1754C117.334 52.5779 117.218 53.0514 117.218 53.5959V61H112.877ZM128.057 61.2575C126.625 61.2575 125.394 60.9645 124.364 60.3786C123.34 59.7867 122.55 58.964 121.993 57.9105C121.443 56.8511 121.168 55.623 121.168 54.2262C121.168 52.8235 121.443 51.5954 121.993 50.5419C122.55 49.4825 123.34 48.6598 124.364 48.0739C125.394 47.482 126.625 47.1861 128.057 47.1861C129.489 47.1861 130.717 47.482 131.741 48.0739C132.771 48.6598 133.561 49.4825 134.112 50.5419C134.668 51.5954 134.946 52.8235 134.946 54.2262C134.946 55.623 134.668 56.8511 134.112 57.9105C133.561 58.964 132.771 59.7867 131.741 60.3786C130.717 60.9645 129.489 61.2575 128.057 61.2575ZM128.084 57.9815C128.604 57.9815 129.045 57.8217 129.406 57.5021C129.767 57.1825 130.043 56.7386 130.232 56.1705C130.427 55.6023 130.525 54.9453 130.525 54.1996C130.525 53.442 130.427 52.7791 130.232 52.2109C130.043 51.6428 129.767 51.1989 129.406 50.8793C129.045 50.5597 128.604 50.3999 128.084 50.3999C127.545 50.3999 127.089 50.5597 126.716 50.8793C126.349 51.1989 126.068 51.6428 125.873 52.2109C125.684 52.7791 125.589 53.442 125.589 54.1996C125.589 54.9453 125.684 55.6023 125.873 56.1705C126.068 56.7386 126.349 57.1825 126.716 57.5021C127.089 57.8217 127.545 57.9815 128.084 57.9815Z" fill="#61677A"/>
<path d="M147.066 53.0099V61H143.852V47.3636H146.924V49.6808H147.084C147.398 48.9173 147.898 48.3106 148.584 47.8608C149.277 47.411 150.132 47.1861 151.15 47.1861C152.091 47.1861 152.911 47.3873 153.609 47.7898C154.314 48.1922 154.858 48.7752 155.243 49.5387C155.633 50.3022 155.826 51.2285 155.82 52.3175V61H152.606V52.8146C152.606 51.9032 152.369 51.19 151.896 50.6751C151.428 50.1602 150.78 49.9027 149.952 49.9027C149.389 49.9027 148.889 50.027 148.451 50.2756C148.019 50.5182 147.679 50.8704 147.43 51.332C147.188 51.7937 147.066 52.353 147.066 53.0099ZM167.865 50.968L164.935 51.2876C164.852 50.9917 164.707 50.7135 164.5 50.4531C164.299 50.1927 164.026 49.9826 163.683 49.8228C163.34 49.663 162.92 49.5831 162.422 49.5831C161.754 49.5831 161.191 49.7281 160.736 50.0181C160.286 50.3081 160.064 50.6839 160.07 51.1456C160.064 51.5421 160.209 51.8647 160.505 52.1133C160.807 52.3619 161.304 52.5661 161.996 52.7259L164.322 53.223C165.613 53.5012 166.571 53.9421 167.199 54.5458C167.832 55.1495 168.152 55.9396 168.157 56.9162C168.152 57.7744 167.9 58.532 167.403 59.1889C166.912 59.84 166.228 60.349 165.352 60.7159C164.476 61.0829 163.47 61.2663 162.334 61.2663C160.665 61.2663 159.321 60.9171 158.303 60.2188C157.285 59.5144 156.678 58.5349 156.483 57.2802L159.617 56.9783C159.759 57.5939 160.061 58.0585 160.523 58.3722C160.984 58.6858 161.585 58.8427 162.325 58.8427C163.088 58.8427 163.701 58.6858 164.162 58.3722C164.63 58.0585 164.864 57.6708 164.864 57.2092C164.864 56.8185 164.713 56.496 164.411 56.2415C164.115 55.987 163.653 55.7917 163.026 55.6555L160.7 55.1673C159.392 54.895 158.424 54.4363 157.797 53.7912C157.17 53.1402 156.859 52.3175 156.865 51.3232C156.859 50.4827 157.087 49.7547 157.548 49.1392C158.016 48.5178 158.664 48.0384 159.493 47.701C160.327 47.3577 161.289 47.1861 162.378 47.1861C163.976 47.1861 165.234 47.5264 166.151 48.207C167.074 48.8877 167.646 49.808 167.865 50.968ZM175.617 47.3636V49.8494H167.778V47.3636H175.617ZM169.713 44.0966H172.927V56.8984C172.927 57.3305 172.992 57.6619 173.122 57.8928C173.258 58.1177 173.436 58.2715 173.655 58.3544C173.874 58.4373 174.116 58.4787 174.383 58.4787C174.584 58.4787 174.768 58.4639 174.933 58.4343C175.105 58.4047 175.235 58.3781 175.324 58.3544L175.865 60.8668C175.694 60.926 175.448 60.9911 175.129 61.0621C174.815 61.1332 174.43 61.1746 173.974 61.1864C173.17 61.2101 172.444 61.0888 171.799 60.8224C171.154 60.5502 170.642 60.13 170.263 59.5618C169.891 58.9936 169.707 58.2834 169.713 57.4311V44.0966ZM180.229 61.2752C179.364 61.2752 178.586 61.1213 177.894 60.8136C177.207 60.4999 176.663 60.0382 176.26 59.4286C175.864 58.819 175.665 58.0674 175.665 57.1737C175.665 56.4042 175.807 55.768 176.092 55.2649C176.376 54.7618 176.763 54.3594 177.255 54.0575C177.746 53.7557 178.299 53.5278 178.915 53.3739C179.536 53.2141 180.178 53.0987 180.841 53.0277C181.64 52.9448 182.288 52.8709 182.785 52.8058C183.283 52.7347 183.644 52.6282 183.869 52.4862C184.099 52.3382 184.215 52.1103 184.215 51.8026V51.7493C184.215 51.0805 184.016 50.5626 183.62 50.1957C183.223 49.8287 182.652 49.6452 181.907 49.6452C181.119 49.6452 180.495 49.8169 180.033 50.1602C179.578 50.5034 179.27 50.9089 179.11 51.3764L176.109 50.9503C176.346 50.1217 176.737 49.4292 177.281 48.8729C177.826 48.3106 178.492 47.8904 179.279 47.6122C180.066 47.3281 180.936 47.1861 181.889 47.1861C182.546 47.1861 183.2 47.263 183.851 47.4169C184.502 47.5708 185.097 47.8253 185.635 48.1804C186.174 48.5296 186.606 49.006 186.931 49.6097C187.263 50.2134 187.429 50.968 187.429 51.8736V61H184.339V59.1268H184.233C184.037 59.5056 183.762 59.8607 183.407 60.1921C183.058 60.5176 182.617 60.781 182.084 60.9822C181.557 61.1776 180.939 61.2752 180.229 61.2752ZM181.063 58.9137C181.708 58.9137 182.268 58.7865 182.741 58.532C183.215 58.2715 183.579 57.9283 183.833 57.5021C184.093 57.076 184.224 56.6114 184.224 56.1083V54.5014C184.123 54.5843 183.951 54.6612 183.709 54.7322C183.472 54.8033 183.206 54.8654 182.91 54.9187C182.614 54.9719 182.321 55.0193 182.031 55.0607C181.741 55.1022 181.489 55.1377 181.276 55.1673C180.797 55.2324 180.368 55.3389 179.989 55.4869C179.61 55.6348 179.311 55.842 179.092 56.1083C178.873 56.3687 178.764 56.7061 178.764 57.1204C178.764 57.7122 178.98 58.1591 179.412 58.4609C179.844 58.7628 180.394 58.9137 181.063 58.9137ZM191.874 42.8182V61H188.66V42.8182H191.874Z" fill="#61677A"/>
<path d="M138 47H141V61H138V47Z" fill="#61677A"/>
<path d="M13.2941 47.151L14.7941 55.151L23.7941 55.651L16.5798 61.0526L17.2941 69.151L10.7941 63.651L2.79407 69.151L6.79407 60.651L0.29406 55.151L9.29406 55.151L13.2941 47.151Z" fill="#76A21E"/>
<path d="M23.2356 22.5225L22.7356 30.7237L31.7356 30.7237L22.7356 36.2328L22.4768 44.7328L17.2356 39.2328L8.23558 44.5225L14.2356 36.0224L8.73559 30.7237L17.7356 30.7237L23.2356 22.5225Z" fill="#76A21E"/>
<path d="M50.5 5L49.5 12.9098H57.5L49.2171 17.1803L48.5 24.5L44 20L36 24.5L41.5 17.1803L37 12.5H45L50.5 5Z" fill="#76A21E"/>
<path d="M83.1116 -0.81607L82.1116 6.68394L89.6116 6.68394L81.1116 11.1839L80.4301 18.5273L76.3594 13.6839L67.6116 18.6839L73.6116 11.1839L69.6116 6.65044L76.3594 6.65045L83.1116 -0.81607Z" fill="#76A21E"/>
<path d="M118.5 1L117.5 7.5H125L117 12L116 19L112 14.5L104 19L110 12L105.5 7.5H113.5L118.5 1Z" fill="#76A21E"/>
<path d="M137.035 13L136.379 19.7188H143.681L136.035 24V31L131.535 26.5L124 31L129.035 24L124.966 19.7188H132.162L137.035 13Z" fill="#76A21E"/>
<path d="M142.5 33V37.5H147L142.5 40V44.5L139.5 42L135 44.5L137.502 40.1492L135.5 37.5H139.5L142.5 33Z" fill="#76A21E"/>
<path d="M140.5 63L140 68.5H145.5L139.5 71.5L139 77L136 74L130 77L134 72L131 68.5H136.5L140.5 63Z" fill="#76A21E"/>
<path d="M114.5 77L114.239 83.1824H120.5L113.5 87V93L110 89.5L103 93L107.5 87L104.08 83.1824L110 83.5L114.5 77Z" fill="#76A21E"/>
<path d="M84.5 82V88.5H91.5L84.5 93L84.5206 99.5L80.5 95.5L73 99.5L77.5 93L75.5 91L73 88.5H80L84.5 82Z" fill="#76A21E"/>
<path d="M52 78L53.5 86.5H62.5L54.2066 91.7984L55.5 100.5L49.5 95L41 100.5L45.2084 91.7984L39 86.5H48L52 78Z" fill="#76A21E"/>
<path d="M27.5 67L29 76.2553L39 76L29.5 82L31.5 91.5L24 85.5L15 91.5L20 82L13 76.2553L23 76L27.5 67Z" fill="#76A21E"/>
</g>
<defs>
<clipPath id="clip0_25_3">
<rect width="194" height="100" fill="white"/>
</clipPath>
</defs>
</svg>
