<?xml version="1.0" encoding="utf-8"?>
<!-- Generator: Adobe Illustrator 19.2.1, SVG Export Plug-In . SVG Version: 6.00 Build 0)  -->
<svg version="1.1" id="layer" xmlns="http://www.w3.org/2000/svg" xmlns:xlink="http://www.w3.org/1999/xlink" x="0px" y="0px"
	 viewBox="0 0 652 652" style="enable-background:new 0 0 652 652;" xml:space="preserve">
<style type="text/css">
	.st0{fill:#E50012;}
	.st1{fill-rule:evenodd;clip-rule:evenodd;fill:#E50012;}
	.st2{fill-rule:evenodd;clip-rule:evenodd;fill:#004097;}
	.st3{fill:#5876B8;}
	.st4{fill:#FFFFFF;}
</style>
<path class="st0" d="M225.4,291.1l23.2,25.1l21.5-25.1h24v72.2h-24.3v-39.9l-21.3,22.7l-22.9-22.7l-0.3,39.7h-23.2v-72H225.4z
	 M416.7,363.3h24.6v-72.2h-24.6V363.3z M406.5,363.3h-24.9l-6.6-11h-38.1l-6.6,11H305l40.4-72.2h22.1L406.5,363.3z M369.4,341.8
	l-13.5-24.9l-13.3,24.9H369.4z M457.6,326.2c0,22,18,39.9,40.3,39.9c14.8,0,27.7-7.9,34.7-19.7l-19.4-11.1
	c-3.1,5.2-8.9,8.6-15.4,8.6c-9.9,0-17.9-7.9-17.9-17.7c0-9.8,8-17.7,17.9-17.7c6.6,0,12.4,3.5,15.5,8.8l19.3-11.2
	c-7-11.7-19.9-19.6-34.7-19.6C475.6,286.4,457.6,304.2,457.6,326.2"/>
<path class="st1" d="M564.6,325.7c0-9.6,7.7-17.3,17.3-17.3c9.5,0,17.3,7.7,17.3,17.3c0,9.6-7.7,17.3-17.3,17.3
	C572.4,343,564.6,335.3,564.6,325.7 M542.1,326.2c0-22,17.7-39.8,39.6-39.8c21.9,0,39.6,17.8,39.6,39.8c0,22-17.7,39.8-39.6,39.8
	C559.8,366,542.1,348.2,542.1,326.2"/>
<path class="st2" d="M21.2,362.7H178V206.4H21.2V362.7z M24,209.2h81.5v70.3c-0.9,4.7-4.7,8.9-9.4,10.5l-5.4,0.7H24V209.2z M24,305
	l72.4-0.2c11-1.9,19.7-10.3,22.7-20.6l0.9-6.8v-68.2h14.1l-0.5,74c-2.1,13.8-12.4,26.9-24.8,32.3c-5.4,2.6-11.7,3.5-18.3,3.5H24V305
	z M24,347.7v-13.8l73.8-0.7c21.8-2.3,40.3-17.3,47.6-37.5c2.4-5.6,3.3-11.9,3.3-18.7v-67.7h13.8l-0.2,76.9
	c-3,24.8-22.5,49.5-46.4,57.4c-7.7,2.8-16.4,4-25.3,4.2H24z M174.9,359.9h-63.7c31.2-7,56.7-33,63.7-64.2V359.9z"/>
<path class="st1" d="M108.9,315.6c-5.4,2.6-11.7,3.5-18.3,3.5H24V305l72.4-0.2c11-1.9,19.7-10.3,22.7-20.6l0.9-6.8v-68.2h14.1
	l-0.5,74C131.6,297.1,121.3,310.2,108.9,315.6 M162.3,286.1l0.2-76.9h-13.8v67.7c0,6.8-0.9,13.1-3.3,18.7
	c-7.3,20.2-25.8,35.2-47.6,37.5L24,333.9v13.8h66.5c8.9-0.2,17.6-1.4,25.3-4.2C139.8,335.5,159.2,310.9,162.3,286.1"/>
<rect x="202.2" y="384.5" class="st3" width="416.8" height="53.5"/>
<path class="st4" d="M302.2,425.5h-10l-8.7-29h9l4.8,17.6h0.1l4.7-17.6h9.2L302.2,425.5z M312.9,425.5h24.4v-7.4h-15.5v-3.6h13.7
	v-6.9h-13.7V404h15.1v-7.4h-24V425.5z M341.5,425.5h8.4v-15.8h0.1l8.9,15.8h8.7v-29h-8.4v15.5h-0.1l-8.4-15.5h-9.1V425.5z
	 M379.1,425.5h8.9V404h8.1v-7.4H371v7.4h8.1V425.5z M399.5,425.5h8.9v-29h-8.9V425.5z M413,425.5h21.8v-7.4h-12.8v-21.6H413V425.5z
	 M437.6,425.5h9l1.3-4.1h9.2l1.2,4.1h9.3l-10.6-29h-8.7L437.6,425.5z M449.8,415.2l2.8-8.9h0.1l2.6,8.9H449.8z M473.6,425.5h8.9V404
	h8.1v-7.4h-25.2v7.4h8.1V425.5z M507.8,395.9c-8.8,0-14.7,6.3-14.7,15.2c0,8.9,5.9,15.2,14.7,15.2c8.8,0,14.7-6.3,14.7-15.2
	C522.5,402.2,516.6,395.9,507.8,395.9 M507.8,419c-2.3,0-5.8-1.5-5.8-8s3.5-8,5.8-8c2.3,0,5.8,1.5,5.8,8S510.1,419,507.8,419
	 M526.3,425.5h8.9v-10.1h4.8c3.5,0,3.8,2.9,4,5.6c0.1,1.5,0.3,3,0.7,4.5h8.9c-0.8-1.3-0.9-4.8-1-6.2c-0.3-3.6-1.8-6.3-4.3-7.2
	c3-1.1,4.3-4.3,4.3-7.3c0-5.5-4.4-8.3-9.5-8.3h-17V425.5z M535.2,403.5h4.2c3.4,0,4.4,1.1,4.4,2.9c0,2.6-2.3,2.9-3.9,2.9h-4.7V403.5
	z M556.4,425.5h24.5v-7.4h-15.5v-3.6H579v-6.9h-13.7V404h15.1v-7.4h-24V425.5z M585,425.5h8.4v-15.8h0.1l8.9,15.8h8.7v-29h-8.4v15.5
	h-0.1l-8.4-15.5H585V425.5z"/>
</svg>
